# xmcd
#
# Track frame offsets:
#	332
#	18332
#	33407
#	49307
#	64982
#	84225
#	99807
#	116652
#	133457
#	150100
#	166932
#	186575
#	204477
#	220132
#	234470
#	251307
#	268052
#	283475
#	298837
#	315670
#
# Disc length: 4440 seconds
#
# Revision: 0
# Processed by: cddbd v1.5.1PL0 Copyright (c) Steve Scherf et al.
# Submitted via: audiograbber 1.83.01
#
DISCID=29115414
DTITLE=Various Artist - Gzsz - Stars and Hits 31 Cd1of2
DYEAR=2002
DGENRE=misc
TTITLE0=Ben Feat. Gim - Engel
TTITLE1=Aquagen - Hard To Say I´m Sorry
TTITLE2=Modern Talking - Ready For The Victory
TTITLE3=Westlife - World Of Our Own
TTITLE4=Sarah Connor - From Sarah With Love
TTITLE5=Bro'sis - I Believe
TTITLE6=Right Said Fred - Love Song
TTITLE7=No Angels - When The Angels Sing
TTITLE8=B3 - Nightfever
TTITLE9=Nicole Da Silva - First Kiss
TTITLE10=Melanie Thornton - Memories
TTITLE11=O-Town - We Fit Together
TTITLE12=Interactive - Forever Young
TTITLE13=Iio - Rapture
TTITLE14=Prezioso Feat. Marvin - Let´s Talk About A Man
TTITLE15=Galleon - So, I Begin
TTITLE16=Riva Feat. Dannii Minogue - Who Do You Love Now? (Stringer)
TTITLE17=Britney Spears - I´m A Slave 4 U
TTITLE18=Shakira - Estoy Aqui
TTITLE19=Scooter - Ramp! (The Logical Song)
EXTD=gzsz
EXTT0=
EXTT1=
EXTT2=
EXTT3=
EXTT4=
EXTT5=
EXTT6=
EXTT7=
EXTT8=
EXTT9=
EXTT10=
EXTT11=
EXTT12=
EXTT13=
EXTT14=
EXTT15=
EXTT16=
EXTT17=
EXTT18=
EXTT19=
PLAYORDER=
